<svg height="60" viewBox="0 0 60 60" width="60" xmlns="http://www.w3.org/2000/svg"><g fill="none" fill-rule="evenodd"><path d="m.78603241 30c0-16.5685433 13.23036029-30 29.55083859-30 16.3204784 0 29.5508387 13.4314567 29.5508387 30s-13.2303603 30-29.5508387 30c-16.3204783 0-29.55083859-13.4314567-29.55083859-30zm0 0" fill="#a4c639"/><path d="m20.9478543 23.4371561c0-3.22682 1.7831375-6.0557109 4.4593447-7.636238l-1.4834304-2.7700737c-.1795729-.3353184-.0625507-.7578012.2614042-.9436731.3239549-.1858718.7321202-.0647447.9116931.2705737l1.5208627 2.8399726c1.1404248-.4705617 2.3979008-.7313041 3.7191176-.7313041 1.3212137 0 2.5786883.2607428 3.7191008.7312971l1.5208796-2.8399656c.1795729-.3353184.5877382-.4564455.9116435-.2705737.3240045.1858719.4410267.6083547.2614538.9436731l-1.4834477 2.7700684c1.2709589.7505825 2.3405303 1.7827807 3.1132806 3.0053983.0104688.016564.0207447.0329409.0308527.0491671.835403 1.3410065 1.3152287 2.9078036 1.3152287 4.5816779 0 .0232557-.0000926.0464907-.0002774.0697022.0001847.0123475.0002774.0247182.0002774.0371113v.0822905h-18.7779839v-.0823418c0-.0123868.0000926-.0247512.0002772-.0370925-.0001847-.0232007-.0002772-.0464249-.0002772-.0696697zm18.7779839 14.8445096c0 1.2975632-1.0162746 2.3494863-2.2698651 2.3494863h-1.1349821v4.8057347c0 1.4155609-1.1086137 2.5631133-2.476203 2.5631133-1.3675892 0-2.4762029-1.1475524-2.4762029-2.5631133v-4.8057347h-2.0635273v4.8057347c0 1.4155609-1.1086632 2.5631133-2.4762029 2.5631133s-2.476203-1.1475524-2.476203-2.5631133v-4.8057347h-1.1349325c-1.2535905 0-2.2698651-1.0519231-2.2698651-2.3494863v-14.2860218h18.7779839zm-19.1906596-12.2814476v9.0775047c0 1.4155608-1.1086137 2.5630619-2.476203 2.5630619-1.3675892 0-2.4762029-1.1475011-2.4762029-2.5630619v-9.0775047c0-1.4155096 1.1086137-2.563062 2.4762029-2.563062 1.3675397 0 2.476203 1.1475524 2.476203 2.563062zm5.880951-6.9416454c0-.2359092-.1847612-.4271514-.4126757-.4271514s-.4126757.1912422-.4126757.4271514c0 .2359091.1847612.4271513.4126757.4271513s.4126757-.1912422.4126757-.4271513zm18.6748398 6.9416454v9.0775047c0 1.4155608-1.1086633 2.5630619-2.4762525 2.5630619-1.3675397 0-2.476203-1.1475011-2.476203-2.5630619v-9.0775047c0-1.4155096 1.1086633-2.563062 2.476203-2.563062 1.3675892 0 2.4762525 1.1475524 2.4762525 2.563062zm-10.0080551-6.9416454c0-.2359092-.1847612-.4271514-.4126757-.4271514s-.4126757.1912422-.4126757.4271514c0 .2359091.1847612.4271513.4126757.4271513s.4126757-.1912422.4126757-.4271513zm0 0" fill="#fff"/><path d="m59.8877097 30c0 16.5685433-13.2303603 30-29.5508387 30-6.0528788 0-11.6807142-1.8474866-16.3660949-5.0172246l33.8602214-49.16336437c7.311898 5.46123927 12.0567122 14.25838627 12.0567122 24.18058897zm0 0" fill="#000" fill-opacity=".08"/></g></svg>