<svg fill="none" height="48" viewBox="0 0 48 48" width="48" xmlns="http://www.w3.org/2000/svg"><path d="m0 0h48v48h-48z" fill="#fff" fill-opacity=".01"/><g stroke-width="4"><path clip-rule="evenodd" d="m24 40.9999c9.9411 0 18-8.3221 18-14 0-5.678-8.0589-14-18-14s-18 8.3278-18 14 8.0589 14 18 14z" fill="#2f88ff" fill-rule="evenodd" stroke="#000" stroke-linejoin="round"/><path d="m24 32.9999c3.3137 0 6-2.6863 6-6s-2.6863-6-6-6-6 2.6863-6 6 2.6863 6 6 6z" fill="#43ccf8" stroke="#fff" stroke-linejoin="round"/><path d="m13.2637 11.266 2.5945 3.6202" stroke="#000" stroke-linecap="round"/><path d="m35.625 11.7103-2.5946 3.6202" stroke="#000" stroke-linecap="round"/><path d="m24.0088 6.99988v6.00002" stroke="#000" stroke-linecap="round"/></g></svg>