<svg height="48pt" viewBox="0 0 48 48" width="48pt" xmlns="http://www.w3.org/2000/svg" xmlns:xlink="http://www.w3.org/1999/xlink"><linearGradient id="a" gradientTransform="matrix(47 0 0 44.864 .5 1.568)" gradientUnits="userSpaceOnUse" x1="0" x2="1" y1=".5" y2=".5"><stop offset="0" stop-color="#0ff"/><stop offset=".98260869565" stop-color="#a553a8"/></linearGradient><path d="m29.542 30.217c-.401.125-.827.192-1.269.192-1.656 0-3.092-.943-3.802-2.321l-15.608 1.421c-.53 1.756-2.162 3.036-4.09 3.036-2.358 0-4.273-1.914-4.273-4.272s1.915-4.273 4.273-4.273c1.657 0 3.094.945 3.803 2.325l15.605-1.421c.529-1.758 2.162-3.04 4.092-3.04 1.038 0 1.989.37 2.73.987l8.053-4.33c-.066-.299-.101-.611-.101-.93 0-2.358 1.914-4.273 4.272-4.273s4.273 1.915 4.273 4.273-1.915 4.273-4.273 4.273c-.861 0-1.663-.256-2.334-.695l-8.373 4.501c.017.153.025.309.025.466 0 .744-.19 1.443-.524 2.052l4.596 5.618c.401-.125.827-.192 1.269-.192 2.359 0 4.273 1.914 4.273 4.272 0 2.359-1.914 4.273-4.273 4.273-2.358 0-4.272-1.914-4.272-4.273 0-.743.19-1.442.524-2.051zm-23.199-10.49c-.277 1.144-1.431 1.848-2.574 1.571-1.144-.278-1.848-1.431-1.571-2.575 1.175-4.892 3.974-9.24 7.926-12.359 3.953-3.108 8.845-4.796 13.876-4.796 6.302 0 12.316 2.66 16.557 7.307.796.872.736 2.224-.134 3.017-.869.793-2.221.733-3.017-.133-3.44-3.771-8.311-5.918-13.406-5.918-4.07 0-8.033 1.367-11.227 3.888-3.204 2.51-5.469 6.035-6.43 9.998zm24.515 21.086c1.096-.442 2.348.085 2.793 1.175.445 1.091-.079 2.34-1.17 2.788-2.691 1.09-5.576 1.656-8.481 1.656-7.029 0-13.662-3.312-17.903-8.919-.707-.944-.518-2.286.422-2.997.941-.71 2.278-.521 2.986.422 3.429 4.54 8.802 7.221 14.495 7.221 2.35 0 4.689-.459 6.858-1.346zm11.258-15.542c.083-1.173 1.105-2.061 2.281-1.981 1.176.079 2.064 1.101 1.981 2.28-.149 2.222-.641 4.412-1.442 6.495-.424 1.096-1.661 1.642-2.761 1.217-1.099-.424-1.647-1.659-1.223-2.755.652-1.688 1.036-3.451 1.164-5.256z" fill="url(#a)" fill-rule="evenodd"/></svg>